<svg id="Calque_1" data-name="Calque 1" xmlns="http://www.w3.org/2000/svg" xmlns:xlink="http://www.w3.org/1999/xlink" viewBox="0 0 357.94 371.74"><defs><style>.cls-1,.cls-3,.cls-5{stroke:#fff;stroke-miterlimit:26.58;stroke-width:6.65px;fill-rule:evenodd;}.cls-1{fill:url(#Dégradé_sans_nom_3);}.cls-2{fill:#1e1e1c;}.cls-3{fill:url(#Dégradé_sans_nom_3-2);}.cls-4{fill:#010101;}.cls-5{fill:url(#Dégradé_sans_nom_3-3);}</style><linearGradient id="Dégradé_sans_nom_3" x1="907.23" y1="-183.38" x2="917.47" y2="-163.6" gradientTransform="translate(-5860.6 1234.12) scale(6.65)" gradientUnits="userSpaceOnUse"><stop offset="0" stop-color="#fff"/><stop offset="1" stop-color="#fff"/></linearGradient><linearGradient id="Dégradé_sans_nom_3-2" x1="920.94" y1="-154.82" x2="931.18" y2="-135.04" xlink:href="#Dégradé_sans_nom_3"/><linearGradient id="Dégradé_sans_nom_3-3" x1="893.52" y1="-154.82" x2="903.76" y2="-135.04" xlink:href="#Dégradé_sans_nom_3"/></defs><path class="cls-1" d="M128.08,12h169V187.33h-169Z" transform="translate(-33.63 -8.72)"/><path class="cls-2" d="M190.38,62.72v64.73h-7.61V62.72Zm12,11.34a82.68,82.68,0,0,1,13.42-1.13c9,0,15.46,2.24,19.72,6.67,4.41,4.41,6.93,10.76,6.93,19.5s-2.54,16.05-7,21-12.12,7.78-21.59,7.78a80.9,80.9,0,0,1-11.48-.64l0-53.22ZM208.71,122a36.9,36.9,0,0,0,6.35.32c13.43.09,20.74-8.35,20.74-23,.06-12.94-6.44-20.87-19.72-20.87a31.63,31.63,0,0,0-7.37.73V122Z" transform="translate(-33.63 -8.72)"/><path class="cls-3" d="M219.21,201.83h169v175.3h-169Z" transform="translate(-33.63 -8.72)"/><path class="cls-4" d="M272.8,254.16a65,65,0,0,1,13.75-1.32c7.09,0,12.25,1.89,15.57,5.29,3,3,4.94,7.66,4.94,13.32s-1.48,10.3-4.37,13.61c-3.78,4.63-10,7-17,7a21.31,21.31,0,0,1-5.76-.57V317h-7.15l0-62.85ZM280,284.79a21.53,21.53,0,0,0,5.92.66c8.72,0,13.91-4.91,13.91-13.53s-5.19-12.56-13.09-12.56A30.58,30.58,0,0,0,280,260v24.77Zm33.74,23.83a18.68,18.68,0,0,0,9.62,3.21c5.19,0,7.66-2.92,7.66-6.79s-2.05-6.14-7.33-8.42c-7.24-3-10.62-7.46-10.62-12.95,0-7.37,5.28-13.43,13.76-13.43a16.79,16.79,0,0,1,9.71,2.82l-1.72,6a14.74,14.74,0,0,0-8.15-2.65c-4.28,0-6.57,2.83-6.57,6.23,0,3.87,2.29,5.58,7.48,7.84,6.82,2.92,10.44,6.91,10.44,13.8,0,8.12-5.52,13.79-14.81,13.79a20.48,20.48,0,0,1-11.2-3.21Z" transform="translate(-33.63 -8.72)"/><path class="cls-5" d="M37,201.83H206v175.3H37Z" transform="translate(-33.63 -8.72)"/><path class="cls-2" d="M101.36,297.31l-6,20.15H87.57l19.73-64h9l19.8,64h-8l-6.21-20.15Zm19-6.47-5.77-18.44c-1.22-4.19-2.08-8-2.94-11.69h-.27c-.81,3.9-1.74,7.76-2.85,11.6l-5.68,18.53ZM147.77,263c-2.85,0-4.73-2.48-4.73-5.41s2-5.33,4.91-5.33,4.81,2.37,4.81,5.33-1.9,5.41-4.9,5.41Zm-3.6,54.45v-46h7.58v46h-7.58Z" transform="translate(-33.63 -8.72)"/></svg>