<?xml version="1.0" encoding="utf-8"?>
<!-- Generator: Adobe Illustrator 24.3.0, SVG Export Plug-In . SVG Version: 6.00 Build 0)  -->
<svg version="1.1" id="Calque_1" class="svgCompetence"
xmlns="http://www.w3.org/2000/svg" xmlns:xlink="http://www.w3.org/1999/xlink" x="0px" y="0px"
	 viewBox="0 0 357.9 371.7" style="enable-background:new 0 0 357.9 371.7;" xml:space="preserve">
<style type="text/css">
	.st0{fill-rule:evenodd;clip-rule:evenodd;fill:url(#SVGID_1_);}
	.st1{fill-rule:evenodd;clip-rule:evenodd;fill:url(#SVGID_2_);stroke:#FFFFFF;stroke-width:6.65;stroke-miterlimit:26.58;}
</style>
<linearGradient id="SVGID_1_" gradientUnits="userSpaceOnUse" x1="846.3652" y1="609.14" x2="856.7609" y2="589.0592" gradientTransform="matrix(6.65 0 0 -6.65 -5498.73 4068.45)">
	<stop  offset="0" style="stop-color:#FFFFFF"/>
	<stop  offset="1" style="stop-color:#FFFFFF"/>
</linearGradient>
<path class="st0" d="M85.1,14.7h176.7V190H85.1L85.1,14.7z"/>
<linearGradient id="SVGID_2_" gradientUnits="userSpaceOnUse" x1="844.6791" y1="586.6876" x2="858.6627" y2="559.6761" gradientTransform="matrix(6.65 0 0 -6.65 -5498.73 4068.45)">
	<stop  offset="0" style="stop-color:#FFFFFF"/>
	<stop  offset="1" style="stop-color:#FFFFFF"/>
</linearGradient>
<path class="st1" d="M0,193.1h354.6v175.3H0L0,193.1z"/>
<g>
	<g>
		<g>
			<path d="M80.8,10.9v185.3h185.3V10.9H80.8z M255.3,185.3H91.6V21.7h163.6V185.3z"/>
		</g>
	</g>
	<g>
		<g>
			<path d="M154,76.6h-10.6l-23.5,61.7h12.3l5.6-15.4h21.5l5.7,15.4h12.3L154,76.6z M139.8,114.5l8.9-24.2l8.5,24.2H139.8z"/>
		</g>
	</g>
	<g>
		<g>
			<path d="M226.8,115.4c0-15.7-12.1-23.4-23.7-23.4c-16.2,0-24.1,12.5-24.1,23.8c0,12.6,9.4,23.4,24,23.4
				c13.8,0,19.5-8.4,21.2-11.9l-10-2.8c-0.8,1.9-4.3,6.2-10.8,6.2c-10,0-11.9-9.6-12.1-11.4h35.2
				C226.6,118.8,226.8,116.1,226.8,115.4z M191.1,111.7c0.5-6.7,5.6-11.3,11.7-11.3c6,0,11.2,4,11.9,11.3H191.1z"/>
		</g>
	</g>
	<g>
	</g>
	<g>
	</g>
	<g>
	</g>
	<g>
	</g>
	<g>
	</g>
	<g>
	</g>
	<g>
	</g>
	<g>
	</g>
	<g>
	</g>
	<g>
	</g>
	<g>
	</g>
	<g>
	</g>
	<g>
	</g>
	<g>
	</g>
	<g>
	</g>
</g>
<g>
	<g>
		<g>
			<path d="M-3.4,188v185.5h185.5V188H-3.4z M171.2,362.6H7.5V198.9h163.8V362.6z"/>
		</g>
	</g>
	<g>
		<g>
			<rect x="127.4" y="275.3" width="10.9" height="10.9"/>
		</g>
	</g>
	<g>
		<g>
			<rect x="105.7" y="275.3" width="10.9" height="10.9"/>
		</g>
	</g>
	<g>
		<g>
			<rect x="116.5" y="286.2" width="10.9" height="10.9"/>
		</g>
	</g>
	<g>
		<g>
			<rect x="127.4" y="297.1" width="10.9" height="10.9"/>
		</g>
	</g>
	<g>
		<g>
			<rect x="138.3" y="307.9" width="10.9" height="10.9"/>
		</g>
	</g>
	<g>
		<g>
			<rect x="94.8" y="264.5" width="10.9" height="10.9"/>
		</g>
	</g>
	<g>
		<g>
			<rect x="83.9" y="253.6" width="10.9" height="10.9"/>
		</g>
	</g>
	<g>
		<g>
			<rect x="127.4" y="253.6" width="10.9" height="10.9"/>
		</g>
	</g>
	<g>
		<g>
			<rect x="105.7" y="253.6" width="10.9" height="10.9"/>
		</g>
	</g>
	<g>
		<g>
			<rect x="73.1" y="242.7" width="10.9" height="10.9"/>
		</g>
	</g>
	<g>
		<g>
			<rect x="83.9" y="231.8" width="10.9" height="10.9"/>
		</g>
	</g>
	<g>
		<g>
			<rect x="62.2" y="231.8" width="10.9" height="10.9"/>
		</g>
	</g>
	<g>
		<g>
			<rect x="105.7" y="231.8" width="10.9" height="10.9"/>
		</g>
	</g>
	<g>
		<g>
			<rect x="51.3" y="221" width="10.9" height="10.9"/>
		</g>
	</g>
	<g>
		<g>
			<rect x="94.8" y="286.2" width="10.9" height="10.9"/>
		</g>
	</g>
	<g>
		<g>
			<rect x="83.9" y="275.3" width="10.9" height="10.9"/>
		</g>
	</g>
	<g>
		<g>
			<rect x="105.7" y="297.1" width="10.9" height="10.9"/>
		</g>
	</g>
	<g>
		<g>
			<rect x="116.5" y="307.9" width="10.9" height="10.9"/>
		</g>
	</g>
	<g>
		<g>
			<polygon points="138.3,329.7 138.3,318.8 127.4,318.8 127.4,329.7 40.4,329.7 40.4,242.7 51.3,242.7 51.3,231.8 40.4,231.8 
				40.4,221 29.6,221 29.6,340.5 138.3,340.5 149.1,340.5 149.1,329.7 			"/>
		</g>
	</g>
	<g>
		<g>
			<rect x="73.1" y="264.5" width="10.9" height="10.9"/>
		</g>
	</g>
	<g>
		<g>
			<rect x="51.3" y="242.7" width="10.9" height="10.9"/>
		</g>
	</g>
	<g>
		<g>
			<rect x="62.2" y="253.6" width="10.9" height="10.9"/>
		</g>
	</g>
	<g>
	</g>
	<g>
	</g>
	<g>
	</g>
	<g>
	</g>
	<g>
	</g>
	<g>
	</g>
	<g>
	</g>
	<g>
	</g>
	<g>
	</g>
	<g>
	</g>
	<g>
	</g>
	<g>
	</g>
	<g>
	</g>
	<g>
	</g>
	<g>
	</g>
</g>
<g>
	<g>
		<g>
			<path d="M173.4,188v185.5H359V188H173.4z M348.1,362.6H184.3V198.9h163.8V362.6z"/>
		</g>
	</g>
	<g>
		<g>
			<path d="M256.5,253.8h-26.2v61.7h12v-20.7h14.6c10.7,0,19.2-9.3,19.2-20.5C276.1,264.8,268.5,253.8,256.5,253.8z M256.2,284.3
				h-13.9v-20h13.4c5.1,0,8.3,4.8,8.3,10C264,280.4,260.4,284.3,256.2,284.3z"/>
		</g>
	</g>
	<g>
		<g>
			<path d="M310.5,280.1v-10.6c-10.5-1.1-15.6,8.7-16.4,10.3V270h-10.7v45.6H295V288C296.2,285.4,300.2,280.1,310.5,280.1
				L310.5,280.1z"/>
		</g>
	</g>
	<g>
	</g>
	<g>
	</g>
	<g>
	</g>
	<g>
	</g>
	<g>
	</g>
	<g>
	</g>
	<g>
	</g>
	<g>
	</g>
	<g>
	</g>
	<g>
	</g>
	<g>
	</g>
	<g>
	</g>
	<g>
	</g>
	<g>
	</g>
	<g>
	</g>
</g>
</svg>
