<?xml version="1.0" encoding="utf-8"?>
<!-- Generator: Adobe Illustrator 24.3.0, SVG Export Plug-In . SVG Version: 6.00 Build 0)  -->
<svg version="1.1" id="Calque_1" xmlns="http://www.w3.org/2000/svg" xmlns:xlink="http://www.w3.org/1999/xlink" x="0px" y="0px"
	 viewBox="0 0 2500 751" style="enable-background:new 0 0 2500 751;" xml:space="preserve">
<style type="text/css">
	.st0{fill-rule:evenodd;clip-rule:evenodd;fill:url(#SVGID_1_);stroke:#FFFFFF;stroke-width:6.6461;stroke-miterlimit:26.5843;}
	.st1{fill:#FFFFFF;stroke:#FFFFFF;stroke-width:9.4175;stroke-miterlimit:26.5843;}
	.st2{fill-rule:evenodd;clip-rule:evenodd;fill:url(#SVGID_2_);stroke:#FFFFFF;stroke-width:6.6461;stroke-miterlimit:26.5843;}
	.st3{stroke:#FFFFFF;stroke-width:9.4175;stroke-miterlimit:26.5843;}
	.st4{fill-rule:evenodd;clip-rule:evenodd;fill:url(#SVGID_3_);stroke:#FFFFFF;stroke-width:6.6461;stroke-miterlimit:26.5843;}
	.st5{fill:#1D1D1B;stroke:#1D1D1B;stroke-width:9.4175;stroke-miterlimit:26.5843;}
</style>
<linearGradient id="SVGID_1_" gradientUnits="userSpaceOnUse" x1="912.5173" y1="598.5162" x2="954.5143" y2="519.0202" gradientTransform="matrix(6.6461 0 0 -6.6461 -5854.9526 4064.5554)">
	<stop  offset="0" style="stop-color:#E7AA34"/>
	<stop  offset="1" style="stop-color:#C96F30"/>
</linearGradient>
<path class="st0" d="M3.4,3.3h717.8v744.4H3.4V3.3z"/>
<g>
	<path class="st1" d="M270.1,410.8l-27.3,91.9h-35.1l89.3-292.1h40.9l89.6,292.1h-36.2l-28.1-91.9L270.1,410.8L270.1,410.8z
		 M356.2,381.3l-26.1-84.1c-5.5-19.1-9.4-36.4-13.3-53.3h-1.2c-3.7,17.8-7.9,35.4-12.9,52.9l-25.7,84.5L356.2,381.3L356.2,381.3z
		 M480.1,254.4c-12.9,0-21.4-11.3-21.4-24.7c0-13.4,9-24.3,22.2-24.3c13.2,0,21.8,10.8,21.8,24.3c0,13.4-8.6,24.7-22.2,24.7H480.1z
		 M463.8,502.7V292.9h34.3v209.7H463.8L463.8,502.7z"/>
</g>
<linearGradient id="SVGID_2_" gradientUnits="userSpaceOnUse" x1="1181.4172" y1="596.6322" x2="1218.9152" y2="523.1362" gradientTransform="matrix(6.6461 0 0 -6.6461 -5854.9526 4064.5554)">
	<stop  offset="0" style="stop-color:#5775B7"/>
	<stop  offset="1" style="stop-color:#2D3E6D"/>
</linearGradient>
<path class="st2" d="M1778.9,3.3h717.8v744.4h-717.8V3.3z"/>
<g>
	<path class="st3" d="M1996.8,221.5c15.7-3.3,36.2-5.8,62.3-5.8c32.1,0,55.5,8.3,70.5,23.2c13.8,13.3,22.4,33.6,22.4,58.4
		c0,25.3-6.7,45.2-19.8,59.7c-17.1,20.3-45.1,30.7-76.8,30.7c-9.7,0-18.6-0.4-26.1-2.5v111.9h-32.4L1996.8,221.5L1996.8,221.5z
		 M2029.3,355.8c7.1,2.1,16.4,2.9,26.8,2.9c39.5,0,63-21.5,63-59.3c0-37.3-23.5-55.1-59.3-55.1c-14.2,0-25,1.6-30.6,2.9V355.8
		L2029.3,355.8z M2182.1,460.3c10.1,6.6,27.2,14.1,43.6,14.1c23.5,0,34.7-12.8,34.7-29.8c0-17.4-9.3-26.9-33.2-36.9
		c-32.8-13.3-48.1-32.7-48.1-56.8c0-32.3,23.9-58.9,62.3-58.9c18.3,0,34.3,5.4,44,12.4l-7.8,26.1c-7.1-4.6-20.1-11.6-36.9-11.6
		c-19.4,0-29.8,12.4-29.8,27.3c0,17,10.4,24.5,33.9,34.4c30.9,12.8,47.3,30.3,47.3,60.5c0,35.6-25,60.5-67.1,60.5
		c-19.8,0-38-5.8-50.7-14.1L2182.1,460.3z"/>
</g>
<linearGradient id="SVGID_3_" gradientUnits="userSpaceOnUse" x1="1041.1473" y1="608.9453" x2="1084.6444" y2="524.9493" gradientTransform="matrix(6.6461 0 0 -6.6461 -5854.9526 4064.5554)">
	<stop  offset="0" style="stop-color:#FFFFFF"/>
	<stop  offset="1" style="stop-color:#FFFFFF"/>
</linearGradient>
<path class="st4" d="M891.1,3.3h717.8v744.4H891.1V3.3z"/>
<g>
	<path class="st5" d="M1154.8,204v303.7h-35.7V204H1154.8z M1211,257.2c20.8-3.5,41.9-5.2,63-5.3c42.4,0,72.5,10.5,92.5,31.3
		c20.7,20.7,32.5,50.5,32.5,91.5c0,41.4-11.9,75.3-32.9,98.7c-21.7,23.7-56.9,36.5-101.3,36.5c-21.4,0-38.6-0.8-53.9-3L1211,257.2
		L1211,257.2z M1240.8,482.1c7.5,1.5,18.3,1.5,29.8,1.5c63,0.4,97.3-39.2,97.3-107.7c0.3-60.7-30.2-97.9-92.5-97.9
		c-15.3,0-26.8,1.5-34.6,3.4L1240.8,482.1L1240.8,482.1z"/>
</g>
</svg>
