<svg id="Calque_1" data-name="Calque 1" xmlns="http://www.w3.org/2000/svg" viewBox="0 0 44.24 273.13"><defs><style>.cls-1{fill:#c6c6c6;}</style></defs><path class="cls-1" d="M279.9,349.12c-2.91.82-10.15-11.76-13-24.52a62.06,62.06,0,0,1,1.45-31.73c5.6-17.5,14.05-16.38,20.67-33.65,1-2.7,7.15-19.27,2.88-38.46-3.41-15.33-9.54-14.81-13.94-32.21-2.17-8.6-5.9-23.34,1-36.06,5.83-10.8,12.78-8.08,16.83-17.79,3.68-8.81-.93-13.72-3.37-39.42-.75-7.91-1.78-18.82,0-19.23,1.94-.45,6.14,11.67,10.1,23.07,5.68,16.37,8.48,24.67,6.73,30.29-3,9.49-10.5,8.6-16.35,20.68A43.55,43.55,0,0,0,289,172.2c.95,14.6,8.13,17,13.94,35.1,2.38,7.39,6.23,19.35,3.85,33.17-2,11.66-6.42,12.8-14.91,32.21-3.22,7.37-8,18.39-10.57,31.73C276.4,330.37,283.29,348.17,279.9,349.12Z" transform="translate(-265.51 -76.04)"/></svg>