<svg id="Calque_1" data-name="Calque 1" xmlns="http://www.w3.org/2000/svg" viewBox="0 0 32.8 265.12"><defs><style>.cls-1{fill:#c6c6c6;}</style></defs><path class="cls-1" d="M270.29,341.92c-2.16-2,16.4-16.39,19.71-42.79,1.49-11.88-.71-21.44-3.85-35.09-5.66-24.65-12.19-27.71-13-46.16-.31-7.28.6-14.15,2.41-27.88,2.31-17.54,3.79-17.65,4.8-29.33a177.05,177.05,0,0,0-1-36.54c-1.51-11.89-3.27-16.25-2.88-26.92.31-8.53,2-20.1,4.33-20.19,1,0,2.39,2,6.73,21.63,4.42,20,6.63,30.08,6.73,37,.08,5.68-.45,4.92-4.81,37-1.73,12.76-2.61,19.22-2.89,23.08a168.19,168.19,0,0,0,1,37.5c1.68,11.3,3.17,11.47,7.69,29.32,6.18,24.43,9.27,36.64,6.73,46.64C296.42,331.3,272.55,344,270.29,341.92Z" transform="translate(-270.11 -77.02)"/></svg>