<svg id="Calque_1" data-name="Calque 1" xmlns="http://www.w3.org/2000/svg" viewBox="0 0 55.48 288.04"><defs><style>.cls-1{fill:#c6c6c6;}</style></defs><path class="cls-1" d="M253.74,359c-2.94,1.13-17.52-16.12-18.27-38-.54-15.67,6.22-28,12.5-39.43,12-21.83,19.73-21.17,24-36.05,4.63-16-.17-30.85-4.33-43.75-7.65-23.78-17.43-27.6-18.27-46.64a58.13,58.13,0,0,1,4.81-26.44c6.53-14.51,14.5-14.63,23.56-30.77C286.14,83,286.3,70.72,288.36,71s4.37,12.33.48,24c-5.12,15.4-16,14.93-23.08,30.28-6.91,15-3.49,30.62-2.4,35.58,2.23,10.2,5.63,13,13.46,30.77,5.7,13,8.52,19.62,10.09,26.44,2.1,9.08,4.77,20.63.49,33.18-2.19,6.39-5.47,10.67-12,19.23-9,11.78-13.73,13.75-18.27,23.07-.9,1.85-3.24,6.95-4.81,17.31C248,339,256.64,357.85,253.74,359Z" transform="translate(-235.44 -70.98)"/></svg>