<svg xmlns="http://www.w3.org/2000/svg"               id="logo" viewBox="0 0 316.31 362.23"><defs><style>.cls-1{fill:#f6f6f6;}</style></defs><g id="manche"><path id="mancheElement" class="cls-1" d="M322.55,164.12A42.77,42.77,0,0,0,299,171.4V141.15H267V388.88h32V307.73A42.85,42.85,0,0,0,322.55,315c30.35,0,54.95-33.78,54.95-75.45S352.9,164.12,322.55,164.12Zm-16,124.54a63.09,63.09,0,0,1-7.58-.47V190.94a61.1,61.1,0,0,1,7.58-.47c30.35,0,54.95,22,54.95,49.09S336.91,288.66,306.56,288.66Z" transform="translate(-61.19 -26.65)"/></g><g id="contenant"><path class="cls-1" d="M74.48,141.15V388.88H250.14V141.15Zm83.71,191a9.19,9.19,0,0,1-5.15,1.43,10.82,10.82,0,0,1-2.75-.36,16.22,16.22,0,0,0-2.52-.18q-6.18-27.28-12.36-45.66a190.25,190.25,0,0,0-15.56-34.61l-4.81,7a12.14,12.14,0,0,0-2.29,5.36,68.4,68.4,0,0,0-.69,7.85c0,3.56.23,9,.69,16.41s.69,12.78.69,16.59v14.63q0,9.45-7.79,9.45Q99,330,99,320q0-7.85,1.37-24.08A236.11,236.11,0,0,0,102,272l.23-15.34V238.1a138.53,138.53,0,0,0-1.6-20.52A126.83,126.83,0,0,1,99,200.81a5,5,0,0,1,1.83-3.92,6.68,6.68,0,0,1,4.58-1.6q8.46,0,8.47,14.44L113,246.31l4.35-8.75q7.56-15,15.56-29.61a104.25,104.25,0,0,1,8.24-12.66c2.6-3.22,4.66-4.82,6.19-4.82a7.64,7.64,0,0,1,4.46,1.34,3.92,3.92,0,0,1,1.94,3.3q0,1.78-12.36,22.12-12.13,19.44-14.19,25.86v3.22q3.44,6.78,18.31,43.43t14.88,38.8A4.18,4.18,0,0,1,158.19,332.11Zm67.41,22.71a29.08,29.08,0,0,1-10.78,3.12c-2.32.18-4.17.27-5.56.27a22.44,22.44,0,0,1-8.95-1.76,22,22,0,0,1-7-4.74,29,29,0,0,1-4.69-7.25,42.91,42.91,0,0,1-3.13-9.14,108.7,108.7,0,0,1-2.78-21c-.12-2.08-.17-5.64-.17-10.7v-8.54q.17-3.64.17-7.58a51.5,51.5,0,0,1,1.22-12.6,16.64,16.64,0,0,1-.52-4.19q0-8.13,7.82-13.14t19.81-5a18.57,18.57,0,0,1,8.34,1.89q3.82,1.91,3.82,4.74a2.43,2.43,0,0,1-1.39,2.17,6.78,6.78,0,0,1-3.47.81,18.85,18.85,0,0,1-3.74-.4,3.87,3.87,0,0,1-2.52-1.22h-2.26v-.27A24.06,24.06,0,0,0,199,262.45a11.63,11.63,0,0,0-4.87,5.83,14.08,14.08,0,0,0-1,3.79,28.71,28.71,0,0,0-.35,4.2,33.33,33.33,0,0,0-.17,4.33l.35,4.74.17,4.61a19.19,19.19,0,0,1-.7,4.74,22.69,22.69,0,0,0-.87,4.74v3.25q0,5.28.53,14.49a64.25,64.25,0,0,0,2.26,15.44,27,27,0,0,0,5.9,12.19,13.79,13.79,0,0,0,11.3,5.15q3,0,7.3-2.44c3.13-1.62,5.33-2.44,6.6-2.44a8.3,8.3,0,0,1,5,2Q230.46,352.13,225.6,354.82Z" transform="translate(-61.19 -26.65)"/></g><g id="Fumée"><path class="cls-1" d="M188.3,98.39a2.72,2.72,0,0,0-3.21,2.11c-1,4.91-4.3,8.64-10.37,11.75a54,54,0,0,1-7.09,2.93,21.28,21.28,0,0,0,2.16-6c1.23-6,.06-10.77-3.49-14.23-4.37-4.26-12.16-6.13-23.16-5.56a92.93,92.93,0,0,0-14.63,2A129.06,129.06,0,0,1,106,93.51c-25.89,0-34.49-10.69-37.18-16.14a23.3,23.3,0,0,1-1.29-16.59,34.2,34.2,0,0,1,10-16,2.71,2.71,0,0,0-3.66-4,39.79,39.79,0,0,0-11.6,18.6A28.63,28.63,0,0,0,64,79.77c3.8,7.7,11.24,13.39,21.52,16.46,11.52,3.43,26.33,3.57,44,.42l.14,0c6.88-1.59,26.21-4.3,32.85,2.19,2.17,2.11,2.81,5.14,2,9.25-1.75,8.53-7.84,11.84-22.48,12.23a2.72,2.72,0,0,0,.07,5.43h.08a58.86,58.86,0,0,0,12.58-1.44c16.76-3.73,32.83-8.8,35.69-22.68A2.73,2.73,0,0,0,188.3,98.39Z" transform="translate(-61.19 -26.65)"/><path class="cls-1" d="M210.09,65.72a188,188,0,0,0-23.78-1.39c-7.79,0-15.57.57-23.09,1.13-10.06.75-20.37,1.52-26.07.15a2.83,2.83,0,0,0-.5-.13,6.47,6.47,0,0,1-3.32-1.81c-.29-.34-1.15-1.39-.35-4.4,2.56-9.67,15.22-14.19,25.4-16.28a118.94,118.94,0,0,1,22.82-2.21,2.71,2.71,0,0,0,1.08-5.22,135,135,0,0,0-27-7.29c-14.34-2.36-35.18-3.32-53,5.55a2.71,2.71,0,1,0,2.41,4.86c16.51-8.21,36.08-7.29,49.59-5.07,4.48.73,8.61,1.65,12.19,2.59C152,37.9,131.69,43,127.73,57.88a12.54,12.54,0,0,0-.36,5.36C122.54,61.1,118.6,57,118.6,49a2.72,2.72,0,0,0-5.43,0c0,16,12.32,20.71,22.68,21.88a43.89,43.89,0,0,0,10.21,1c5.13,0,11.08-.44,17.56-.92,7.42-.56,15.1-1.13,22.69-1.13A182.94,182.94,0,0,1,209.4,71.1a2.71,2.71,0,0,0,.69-5.38Z" transform="translate(-61.19 -26.65)"/><path class="cls-1" d="M248.34,89.24c-3.45-5.91-8.77-10.84-15.82-14.67a2.71,2.71,0,1,0-2.59,4.76c11.78,6.41,17.76,16,17.76,28.51a36.08,36.08,0,0,1-19.87,32.57,2.72,2.72,0,0,0,1.25,5.13,2.65,2.65,0,0,0,1.24-.31,41.41,41.41,0,0,0,22.8-37.39A36.34,36.34,0,0,0,248.34,89.24Z" transform="translate(-61.19 -26.65)"/><path class="cls-1" d="M138.94,179.81c-5.24-7.46-14.69-11.56-26.62-11.56-6.18,0-11.56-1.63-15.57-4.69A18,18,0,0,1,90,152.81,18.57,18.57,0,0,1,92.18,140a25.06,25.06,0,0,1,12.49-10.37,51.11,51.11,0,0,1,14.53-3.37,2.71,2.71,0,1,0-.54-5.4,56.34,56.34,0,0,0-16.06,3.76c-15.17,6.27-19.94,19.23-17.95,29.28a23.46,23.46,0,0,0,8.8,14c5,3.79,11.49,5.8,18.87,5.8,10.11,0,18,3.29,22.17,9.25" transform="translate(-61.19 -26.65)"/><path class="cls-1" d="M159.76,159.56" transform="translate(-61.19 -26.65)"/><path class="cls-1" d="M166.58,157.32a11.41,11.41,0,0,1,4.48-3.46h0c7-3.27,19-3.27,31.65-3.27a53,53,0,0,0,12.19-1.39,2.71,2.71,0,1,0-1.25-5.28,47.22,47.22,0,0,1-10.94,1.24c-13.63,0-25.88,0-33.93,3.76-8.6,2.88-18.72,9.23-21.72,18.59" transform="translate(-61.19 -26.65)"/></g></svg>