<?xml version="1.0" encoding="utf-8"?>
<!-- Generator: Adobe Illustrator 24.3.0, SVG Export Plug-In . SVG Version: 6.00 Build 0)  -->
<svg version="1.1" id="Calque_1" xmlns="http://www.w3.org/2000/svg" xmlns:xlink="http://www.w3.org/1999/xlink" x="0px" y="0px"
	 viewBox="0 0 264.5 196.3" style="enable-background:new 0 0 264.5 196.3;" xml:space="preserve">
<style type="text/css">
	.st0{fill:#583533;stroke:#1D1D1B;stroke-width:0.5;stroke-miterlimit:10;}
	.st1{fill:#E5E5E5;stroke:#1D1D1B;stroke-width:2;stroke-miterlimit:10;}
	.st2{fill:#F4F4F4;stroke:#1D1D1B;stroke-width:2;stroke-miterlimit:10;}
	.st3{fill:none;stroke:#1D1D1B;stroke-width:2;stroke-miterlimit:10;}
	.st4{fill:#891B16;}
</style>
<path class="st0" d="M102.8,13.3c46.6,0,84.4-5.5,84.4-12.3H18.4C18.4,7.8,56.2,13.3,102.8,13.3z"/>
<path class="st1" d="M209.2,33.9c-1.5,0-3.1,0.1-4.6,0.2V1h-17.4c0,6.8-37.8,12.3-84.4,12.3S18.4,7.8,18.4,1H1v172.7
	c0,11.9,8.1,21.6,18.2,21.6h167.2c10,0,18.2-9.7,18.2-21.6v-11.5c1.5,0.1,3,0.2,4.6,0.2c30,0,54.3-28.8,54.3-64.3
	S239.2,33.9,209.2,33.9z M204.6,145.6V50.7c26.2,15,35.3,48.4,20.4,74.6C220.1,133.8,213.1,140.9,204.6,145.6L204.6,145.6z"/>
<path class="st2" d="M1,169.1"/>
<line class="st3" x1="1" y1="173.7" x2="204.6" y2="173.7"/>
<path class="st4" d="M134.9,47.2c-10.3-2.7-22,1.4-32.1,10.1c-10-8.6-21.8-12.7-32.1-10C52.8,52,46.3,75.5,56.2,99.9
	c9.2,22.7,27,41.3,46.6,50.1c18.4-7.6,37.4-27.3,46.6-50.1C159.3,75.4,152.7,51.9,134.9,47.2z"/>
</svg>
